<svg xmlns="http://www.w3.org/2000/svg" xmlns:xlink="http://www.w3.org/1999/xlink" width="512" height="512" viewBox="0 0 512 512">
  <defs>
    <rect id="pwa-a" width="512" height="512" rx="42.667"/>
    <rect id="pwa-b" width="512" height="512" rx="42.667"/>
    <path id="pwa-d" d="M389.216888,368 L544,368 L544,544 L280,544 L294.300199,449.618684 L294.300199,449.618684 C301.41082,402.688588 341.751165,368 389.216888,368 Z"/>
  </defs>
  <g fill="none" fill-rule="evenodd">
    <use fill="#FFF" xlink:href="#pwa-a"/>
    <g transform="matrix(1 0 0 -1 30.316 415.377)">
      <path fill="#2D3277" d="M450.683918,165.58671 C450.683918,246.802121 349.915533,313.007584 225.60783,313.007584 C101.306612,313.007584 0.541469167,246.802121 0.541469167,165.58671 C0.541469167,163.489278 0.515530525,157.690497 0.515530525,156.95672 C0.515530525,70.7996823 88.590192,1.01624785 225.578649,1.01624785 C363.416597,1.01624785 450.683918,70.7802015 450.683918,156.940486 L450.683918,165.58671 Z" transform="translate(.516 1.861)"/>
      <path fill="#FDE600" d="M434.472266,139.612324 C434.472266,63.0463281 337.581708,0.977286268 218.056443,0.977286268 C98.5344192,0.977286268 1.64386148,63.0463281 1.64386148,139.612324 C1.64386148,216.184814 98.5344192,278.257102 218.056443,278.257102 C337.581708,278.257102 434.472266,216.184814 434.472266,139.612324" transform="translate(8.11 27.908)"/>
      <path fill="#FFF" d="M3.24233034,61.6891664 C3.12884878,61.471631 0.969456773,59.234587 2.37014348,57.4358607 C5.78755966,53.0689171 16.3348603,50.5623889 27.0021271,52.958526 C33.3538522,54.3871172 41.4921014,60.8709733 49.3806911,67.1372939 C57.9274739,73.9360894 66.4029254,80.7446253 74.9302542,83.452455 C83.9536596,86.3291182 89.7347346,85.0953349 93.5574421,83.9394747 C97.7497752,82.6862106 102.674875,79.9231853 110.537526,74.0172593 C125.348491,62.8677542 184.890646,10.8248253 195.17856,1.82794741 C203.462714,5.57475257 240.289102,21.4483491 290.327986,32.4939567 C285.983263,59.2086126 269.7554,83.6505097 245.14287,103.663774 C210.842258,89.2350026 168.918926,81.7089243 127.929386,101.757903 C127.718635,101.84232 105.531368,112.355453 83.6488805,111.839212 C51.1250649,111.085955 37.0338972,96.9883568 22.1256623,82.0660721 L3.24233034,61.6891664 Z" transform="translate(151.064 149.572)"/>
      <path fill="#FFF" d="M333.960025,72.2412606 C333.262924,72.8613991 263.948386,133.596007 248.242538,145.417599 C239.157528,152.242369 234.102735,153.982653 228.795041,154.661234 C226.032575,155.018382 222.216352,154.505387 219.547915,153.771611 C212.242944,151.781324 202.691039,145.385131 194.209103,138.654518 C185.428872,131.651175 177.151203,125.056927 169.473365,123.332878 C159.655588,121.131548 147.671936,123.728987 142.202124,127.433584 C139.98437,128.923864 138.428052,130.647914 137.675831,132.401185 C135.659102,137.092809 139.384539,140.842861 139.994097,141.469493 L159.123846,162.187312 C161.344843,164.411369 163.588535,166.632179 165.87762,168.823768 C159.704223,168.018562 154.000964,166.440618 148.446852,164.891895 C141.51475,162.940569 134.848519,161.083401 128.107714,161.086647 C125.293371,161.086647 110.206808,163.563955 107.343831,164.343186 C90.033029,169.086758 74.8427113,173.706952 52.1496413,184.317489 C24.9562167,164.044481 6.76998576,138.699974 1.5174106,110.780756 C5.42441867,109.748274 11.7210242,107.871624 14.3667658,107.283954 C75.9029534,93.5824654 95.068368,79.4686335 98.5441461,76.5205407 C102.308492,80.715404 107.739395,83.371285 113.79931,83.371285 C120.611446,83.3615446 126.742693,79.9361724 130.474615,74.6406445 C133.999028,77.4296442 138.859282,79.8095473 145.142918,79.8063005 C147.996169,79.8063005 150.953174,79.2770724 153.942602,78.2608246 C160.887674,75.8744279 164.470449,71.2444936 166.325062,67.0561239 C168.656298,68.1113333 171.519275,68.8873181 174.891299,68.8775777 C178.20496,68.8775777 181.651558,68.1178269 185.124093,66.6178061 C196.47225,61.7411151 198.23932,50.5818696 197.208259,42.1661686 C198.015599,42.2635725 198.829424,42.2992873 199.656218,42.2992873 C213.108647,42.2895469 224.051511,31.3413433 224.045027,17.8638838 C224.045027,13.6949949 222.9783,9.77286262 221.126929,6.3280097 C224.78752,4.26629282 234.118947,-0.392862647 242.309074,0.646112788 C248.855339,1.47079954 251.342206,3.71433712 252.230604,4.97084803 C252.83692,5.84098996 253.485386,6.85074421 252.885555,7.57802702 L235.522876,26.8932297 C235.522876,26.8932297 232.663141,29.6010594 233.606659,30.6432817 C234.589085,31.7179719 236.352913,30.1789895 237.60121,29.1335205 C246.439802,21.7405609 257.230278,10.5910558 257.230278,10.5910558 C257.411848,10.4709242 258.125161,9.05532021 262.11647,8.3377778 C265.550097,7.72413294 271.626225,8.08128074 275.838012,11.5456145 C276.901496,12.4190032 277.961738,13.5099274 278.850137,14.6365664 C278.778805,14.5813708 278.723686,14.5066944 278.655597,14.4807201 C283.094347,20.1691106 278.166005,25.9256838 278.166005,25.9256838 L257.894956,48.7214542 C257.894956,48.7214542 254.996312,51.4033096 255.978738,52.4844934 C256.863895,53.4195713 258.728234,52.007214 259.995986,50.9487578 C266.4158,45.5753067 275.484598,36.4615441 284.177285,27.9354519 C285.873024,26.695175 293.511954,21.9613432 303.628025,28.6140328 C309.762514,32.6465562 310.997842,37.5979235 310.822756,41.3349882 C310.394768,46.2831088 306.54288,49.8058848 306.54288,49.8058848 L278.850137,77.6828945 C278.850137,77.6828945 275.928797,80.1829291 276.959858,81.4491804 C277.806106,82.5141302 279.706112,80.9783947 280.947924,79.9361724 C289.773547,72.5464597 313.650068,50.624078 313.650068,50.624078 C313.990513,50.3838149 322.242244,44.5006165 332.43613,51.0007066 C336.080509,53.3351545 338.411745,56.8546838 338.612769,60.939156 C338.959699,68.0301633 333.960025,72.2412606 333.960025,72.2412606" transform="translate(9.863 73.497)"/>
      <path fill="#FFF" d="M101.087904,38.9615788 C96.795059,39.0135276 92.1001646,36.4582974 91.4873642,36.8316792 C91.1469195,37.0557082 91.7499929,38.7830049 92.1487996,39.779772 C92.5638179,40.7700454 98.218442,57.8059957 84.4320534,63.7216621 C73.8879951,68.2606861 67.439,63.1534724 65.2212461,60.8482457 C64.6408689,60.247588 64.3814825,60.2930432 64.3166359,61.0657812 C64.1026421,64.1307587 62.7311364,72.4328218 53.6266728,75.2120811 C40.6184434,79.2023961 32.2532311,70.1081143 30.1295048,66.8256012 C29.179502,74.2510288 22.9120774,80.0173425 15.2342392,80.0205893 C6.89172319,80.0303297 0.124979759,73.2607553 0.112010438,64.9099903 C0.112010438,56.5592252 6.87226921,49.7864041 15.2147852,49.7864041 C19.2709404,49.7766637 22.9445007,51.4000628 25.6550889,54.0072418 C25.7426318,53.9260719 25.7750551,53.7832127 25.7329048,53.4974945 C25.1006504,49.7571829 23.9269268,36.1660855 38.141303,30.6335413 C43.8413198,28.4159781 48.6886037,30.0653516 52.7090933,32.8868193 C53.9022708,33.7342336 54.100053,33.373839 53.9282095,32.2504469 C53.4159213,28.7536452 54.0643874,21.2697752 64.543599,17.0132227 C72.5164893,13.7696713 77.23408,17.0911459 80.3240208,19.9515751 C81.6695879,21.1788649 82.0359712,20.9808102 82.1073025,19.0814332 C82.4866552,8.96765672 90.8778061,0.935077891 101.065208,0.925337496 C111.567116,0.915597102 120.074991,9.41571488 120.078233,19.9256008 C120.08796,30.4387334 111.583328,38.8479409 101.087904,38.9615788" transform="translate(108.427 71.436)"/>
      <path fill="#2D3277" d="M201.024481,9.7403947 C191.508242,9.75013509 183.775284,17.1528351 183.425112,26.5880307 C183.399174,27.3964835 183.318115,29.5491107 181.50241,29.5491107 C180.756674,29.5491107 180.104966,29.0978058 179.355988,28.4224717 C177.267927,26.4808864 174.602731,24.5068331 170.708693,24.5068331 C168.944865,24.5068331 167.03189,24.9191764 165.011918,25.74711 C154.963936,29.8218418 154.824516,36.7310284 155.23305,39.5102877 C155.346531,40.2505577 155.382197,41.0232957 154.873151,41.6207066 L154.253866,42.1759091 L153.628096,42.1759091 C153.11905,42.1759091 152.590551,41.968114 151.88048,41.4648602 C148.975352,39.4226241 146.186948,38.4291039 143.353151,38.4291039 C141.793591,38.4291039 140.191879,38.7440433 138.593411,39.360935 C125.36146,44.5168506 126.405491,57.0202706 127.053957,60.7833097 C127.147984,61.5430605 126.959929,62.1372246 126.476822,62.5300872 L125.543031,63.2995784 L124.670844,62.4619044 C122.089949,59.974857 118.721168,58.6112017 115.174058,58.6112017 C107.596732,58.6209421 101.433062,64.7833651 101.436305,72.3711326 C101.442789,79.9621469 107.612944,86.1213231 115.19027,86.1115827 C122.038072,86.1115827 127.867782,80.9589139 128.739969,74.1081697 L129.213349,70.4133133 L131.239805,73.53998 C131.466768,73.9068682 137.017638,82.3128288 147.221252,82.3030884 C149.163407,82.3030884 151.17041,81.988149 153.187139,81.3647637 C161.322146,78.8777163 162.700137,71.4912503 162.91413,68.4132856 C163.056793,66.6210529 164.331029,66.5333894 164.580688,66.5333894 C165.284274,66.5333894 165.799804,66.9814476 166.16943,67.3645697 C167.703052,68.9684881 171.045895,71.6373562 176.279016,71.6373562 C178.675098,71.6308626 181.22357,71.0626729 183.8531,69.9295403 C196.783513,64.3742686 190.918138,47.9227419 190.846806,47.7506616 C189.737929,45.0233511 189.692537,43.818789 190.736567,43.1239741 L191.245613,42.8804643 L191.624966,42.8804643 C192.208585,42.8804643 192.931625,43.1337145 194.128045,43.5395643 C195.891872,44.1499624 198.544099,45.0655595 201.027724,45.0590659 L201.034208,45.0590659 C210.767684,44.9551683 218.685455,37.0199935 218.682212,27.3867431 C218.672485,17.652842 210.751472,9.7403947 201.024481,9.7403947 M338.012938,89.0337012 C316.665435,107.693051 267.317168,150.651438 253.952282,160.697032 C246.316594,166.450358 241.109411,169.486115 236.537726,170.84977 C234.48533,171.473155 231.641807,172.17771 227.981216,172.180957 C224.583254,172.180957 220.93239,171.567312 217.119409,170.35301 C208.481841,167.615959 199.876696,160.768461 191.553634,154.144993 L191.125647,153.804079 C183.373235,147.635162 175.361437,141.24871 169.298279,139.891549 C166.649295,139.294138 163.92898,138.988939 161.215149,138.988939 C154.422467,138.998679 148.320402,140.959745 146.034559,143.878617 C145.658448,144.36239 145.901623,145.144868 146.783537,146.271507 L146.900261,146.42086 L165.683081,166.690621 C180.393533,181.421345 194.290161,195.330629 226.278992,196.067652 C226.80425,196.083886 227.345719,196.093626 227.874219,196.093626 C247.782127,196.080639 267.686793,187.155191 269.920759,186.119462 C288.586855,177.002452 307.856024,172.369271 327.225705,172.353037 C347.415696,172.346544 368.244426,177.34986 390.143126,187.447402 C387.698409,189.509119 385.153179,191.512394 382.533376,193.479954 C363.293388,185.129188 344.964495,180.908351 327.280825,180.914844 C309.221045,180.931078 291.170992,185.272048 273.652681,193.833855 C272.728617,194.275419 250.748859,204.652186 227.883946,204.661927 C227.284115,204.661927 226.677799,204.652186 226.077968,204.642446 C199.208776,204.012567 184.076821,194.460487 173.899146,186.086994 C164.000311,185.846731 155.463255,183.457087 147.863233,181.333681 C141.08352,179.447292 135.231114,177.810905 129.518128,177.814152 C127.164196,177.814152 122.932955,178.028441 122.55036,178.041428 C115.984641,178.239483 82.8966599,186.366219 56.5786645,196.346876 C53.894015,194.441006 51.3098777,192.473446 48.790587,190.470172 C76.2855483,179.184301 109.743155,170.450414 120.303425,169.768586 C123.240976,169.577025 126.373067,169.242605 129.501916,169.236111 C136.489138,169.236111 143.460148,171.200424 150.207438,173.090061 C154.192262,174.210206 158.592104,175.427755 163.215667,176.317378 C161.980339,175.103076 160.748254,173.872539 159.512926,172.632262 L140.42857,151.959898 C138.927371,150.440396 135.665586,146.388392 137.815251,141.398063 C138.671226,139.385048 140.405873,137.459697 142.834379,135.820064 C147.383368,132.755086 155.52486,130.680382 163.089216,130.673888 C165.955436,130.670642 168.672509,130.959607 171.169104,131.521303 C179.167932,133.320029 187.559083,140.01168 196.449553,147.0897 C203.530803,152.722895 213.594996,159.878839 221.298773,161.982764 C223.45168,162.567188 226.097422,162.934076 228.221148,162.934076 C228.856645,162.927582 229.456476,162.908101 230.014157,162.826931 C235.104616,162.180819 240.026473,160.447028 248.813188,153.843041 C264.476886,142.06041 333.801151,81.3322957 334.478798,80.7316381 C334.524191,80.6959233 338.946729,76.8776886 338.638708,70.530198 C338.473349,66.9911879 336.511739,63.8450405 333.100808,61.6664388 C330.143803,59.7865427 327.086285,58.8287372 323.999587,58.8287372 C319.369539,58.8384776 316.175843,61.0105856 315.971577,61.1599383 C315.715433,61.3677334 291.96212,83.1764771 283.227283,90.501254 C281.83308,91.6538673 280.481029,92.6960896 279.112765,92.6960896 C278.383241,92.7025832 277.738017,92.3876437 277.300303,91.8389348 C275.922312,90.1441061 277.465662,87.7934242 279.278124,86.2447015 L307.022745,58.3222367 C307.061653,58.2930155 310.479069,55.081932 310.855179,50.7994052 C311.072416,46.1694709 308.861146,42.2960406 304.266764,39.2830118 C300.995253,37.123891 297.678349,36.0264732 294.432776,36.0264732 C290.175596,36.0264732 287.182926,37.9680585 286.52149,38.4291039 L282.539909,42.3577298 C275.267362,49.5234135 267.758124,56.932607 262.259132,61.5268265 C260.92005,62.6437251 259.48694,63.6729602 258.125161,63.6729602 C257.450756,63.6729602 256.841198,63.4229567 256.377545,62.9326902 C255.748533,62.2346285 255.314061,60.9781176 256.873621,58.9001668 C257.518845,58.043012 258.277551,57.33521 258.277551,57.33521 L278.522661,34.565414 C278.691262,34.3608657 282.69554,29.5945659 278.976587,24.8477469 L278.263275,23.9386434 C277.656959,23.2698029 277.002008,22.6561581 276.382723,22.1204364 C272.926399,19.2827347 268.312563,18.9807825 266.487131,18.9807825 C265.51119,18.9807825 264.567671,19.0651992 263.750604,19.2145519 C261.753329,19.5716998 260.411004,20.130149 259.762538,20.8996402 L259.519363,21.1561373 C258.410486,22.2990103 248.20363,32.730973 239.760602,39.7895123 C238.648483,40.7245902 237.260765,41.8999312 235.824413,41.8999312 C235.114343,41.8999312 234.48533,41.6207066 233.995739,41.081738 C232.325938,39.2505438 234.83226,36.5102461 235.895744,35.5069855 L253.167638,16.4385395 C253.148184,16.2697059 252.927705,15.8768434 252.509445,15.2729389 C251.893402,14.4157842 249.795614,12.3183525 243.534674,11.5326273 C242.782454,11.4319766 242.007537,11.393015 241.242347,11.393015 C234.783625,11.393015 227.893673,14.5326689 224.343321,16.4190587 C225.958002,19.8346904 226.797765,23.6009764 226.797765,27.3770027 C226.80425,41.6077194 215.261554,53.1858019 201.05042,53.1955423 C200.745641,53.1955423 200.421408,53.1858019 200.119871,53.1760615 C200.583524,59.6729047 199.669187,71.97827 187.056522,77.3939295 C183.425112,78.9653798 179.806672,79.767339 176.285501,79.767339 C173.532762,79.767339 170.883778,79.2965533 168.393669,78.3387478 C165.78035,83.4232338 161.442112,87.1278306 155.781004,89.0596755 C152.655397,90.1441061 149.54276,90.6928151 146.53712,90.6928151 C141.287787,90.6928151 136.453473,89.1440923 132.141173,86.0726212 C128.007202,91.2187964 121.768958,94.2642931 115.196755,94.2642931 C109.444861,94.2642931 103.913445,91.9590664 99.8151396,87.894075 C94.4393559,92.0045215 73.1177916,105.569645 16.0560199,118.54385 C13.2903121,119.167236 6.94831393,120.991936 3.06400218,122.128316 C2.41877844,119.034117 1.92594422,115.90745 1.60495352,112.754809 C1.60495352,112.754809 12.1295578,110.2288 14.1981646,109.764508 C72.4920218,96.7967957 91.7547064,83.3160895 95.0100061,80.7673529 C93.9076138,78.1179655 93.3337213,75.2542895 93.330479,72.3711326 C93.320752,60.312524 103.115832,50.4909593 115.170816,50.4812189 C116.519626,50.4812189 117.858708,50.5981037 119.175094,50.8416135 C120.987557,41.968114 126.788086,35.240748 135.652617,31.7861547 C138.243239,30.7893876 140.863042,30.2763935 143.43421,30.2763935 C145.100768,30.2731467 146.77381,30.4841886 148.411187,30.9030256 C150.045321,26.7373835 153.728609,21.5489999 161.964128,18.1983041 C164.849802,17.0359503 167.735476,16.4287991 170.543334,16.4287991 C172.835661,16.4287991 175.076112,16.831402 177.212807,17.6171272 C181.158723,7.99361725 190.551754,1.61690552 201.021239,1.61690552 C207.956584,1.60716513 214.619572,4.43837318 219.476583,9.44493606 C223.636493,7.12996892 232.413481,2.9415992 241.284497,2.92861201 C242.432282,2.92861201 243.508736,3.01302876 244.585189,3.13965389 C253.394601,4.25655248 257.496149,7.70465221 259.379943,10.3865075 C259.717145,10.8540465 260.025167,11.3508066 260.284553,11.8670475 C262.362887,11.2696367 264.651972,10.7793701 267.268533,10.7728765 C272.083393,10.7728765 276.697229,12.4157564 281.366185,15.8216478 C285.95084,19.133382 289.209382,23.8834478 289.676278,27.9322052 C289.686005,27.984154 289.695732,28.0458431 289.702216,28.1042855 C291.248808,27.7860993 292.834307,27.6205126 294.416565,27.6205126 C299.370845,27.6205126 304.240825,29.1659885 308.896812,32.2212257 C317.878067,38.1174113 319.437628,45.8155699 319.288481,50.8578475 C320.857769,50.5299209 322.465964,50.3610874 324.061191,50.3610874 C328.710693,50.3610874 333.275894,51.7604574 337.627101,54.5397167 C343.194182,58.1014544 346.543509,63.5560754 347.052555,69.903566 C347.399485,74.2185608 346.332758,78.5725172 344.059884,82.3160756 C359.104297,88.8064253 393.492453,101.368288 433.982674,110.504778 C433.739499,113.650925 433.285573,116.754864 432.72465,119.845816 C383.729796,108.959302 347.172522,93.1149265 338.012938,89.0337012" transform="translate(8.49 63.975)"/>
    </g>
    <g>
      <mask id="pwa-c" fill="#fff">
        <use xlink:href="#pwa-b"/>
      </mask>
      <g mask="url(#pwa-c)">
        <use fill="#3483FA" xlink:href="#pwa-d"/>
        <path stroke="#FFF" stroke-width="10.667" d="M389.216888,362.666667 L549.333333,362.666667 L549.333333,549.333333 L273.797715,549.333333 L289.02705,448.819722 C296.532705,399.282398 339.114181,362.666667 389.216888,362.666667 Z"/>
      </g>
      <path fill="#FFF" d="M375.189333,467 L377.066667,458.210667 L351.978667,458.210667 L362.645333,410.082667 L352.661333,410.082667 L340.117333,467 L375.189333,467 Z M399.253333,420.749333 C402.069333,420.749333 405.482667,418.445333 405.482667,414.434667 C405.482667,411.874667 403.349333,409.656 400.448,409.656 C397.632,409.656 394.218667,411.96 394.218667,415.970667 C394.218667,418.616 396.352,420.749333 399.253333,420.749333 Z M392.938667,467 L402.069333,425.784 L393.109333,425.784 L383.978667,467 L392.938667,467 Z M419.306667,468.024 C421.866667,468.024 424.341333,467.341333 425.877333,466.146667 L425.365333,458.978667 C424.682667,459.576 423.232,460.088 421.952,460.088 C419.221333,460.088 417.856,458.722667 417.856,456.418667 C417.856,455.821333 417.941333,455.224 418.026667,454.797333 L422.72,433.549333 L431.082667,433.549333 L432.874667,425.784 L424.512,425.784 L426.986667,414.52 L418.026667,414.52 L415.552,425.784 L408.725333,425.784 L406.933333,433.549333 L413.76,433.549333 L408.554667,457.016 C408.384,457.954667 408.298667,459.149333 408.298667,459.661333 C408.298667,465.378667 412.650667,468.024 419.306667,468.024 Z M454.208,468.024 C441.408,468.024 433.386667,460.941333 433.386667,449.592 C433.386667,436.109333 443.456,424.76 456.938667,424.76 C467.605333,424.76 475.114667,431.928 475.114667,443.021333 C475.114667,445.24 474.688,448.056 474.346667,449.336 L442.432,449.336 C442.432,449.592 442.346667,450.36 442.346667,450.786667 C442.346667,455.48 446.528,460.685333 454.890667,460.685333 C458.645333,460.685333 462.997333,459.490667 465.898667,457.272 L468.714667,463.501333 C464.874667,466.317333 459.413333,468.024 454.208,468.024 Z M443.370667,443.021333 L467.008,443.021333 C467.093333,442.765333 467.093333,442.168 467.093333,441.826667 C467.093333,436.536 463.509333,432.098667 456.256,432.098667 C449.685333,432.098667 444.48,437.304 443.370667,443.021333 Z" mask="url(#pwa-c)"/>
    </g>
  </g>
</svg>
